<?xml version="1.0" standalone="no"?>
<!DOCTYPE svg PUBLIC "-//W3C//DTD SVG 20010904//EN"
 "http://www.w3.org/TR/2001/REC-SVG-20010904/DTD/svg10.dtd">
<svg version="1.0" xmlns="http://www.w3.org/2000/svg"
 width="491.000000pt" height="508.000000pt" viewBox="0 0 491.000000 508.000000"
 preserveAspectRatio="xMidYMid meet">

<g transform="translate(0.000000,508.000000) scale(0.100000,-0.100000)"
fill="#000000" stroke="none">
<path d="M2320 5039 c-122 -11 -159 -22 -245 -72 -86 -51 -260 -222 -297 -292
-15 -28 -39 -91 -54 -140 -22 -76 -27 -114 -32 -247 -2 -87 -1 -187 3 -223 l7
-64 26 18 c25 18 186 41 169 25 -3 -3 1 -13 9 -22 13 -12 13 -16 2 -23 -7 -5
-9 -9 -4 -9 6 0 6 -4 0 -10 -13 -13 -164 9 -164 23 0 6 -10 -2 -23 -17 -21
-24 -25 -25 -37 -12 -7 9 -25 16 -40 16 -35 0 -50 -37 -50 -122 0 -68 33 -233
59 -298 10 -25 22 -62 25 -82 7 -38 29 -58 64 -58 16 0 20 -10 25 -57 4 -32
18 -102 31 -156 24 -92 25 -127 5 -127 -5 0 -34 -34 -66 -77 -31 -42 -88 -107
-127 -145 -64 -63 -89 -78 -251 -157 -99 -48 -238 -119 -310 -157 -71 -39
-202 -103 -290 -143 -88 -40 -185 -86 -215 -101 -30 -16 -70 -34 -87 -40 -24
-9 -33 -19 -33 -35 0 -71 143 -389 248 -550 242 -373 633 -696 1022 -842 35
-13 68 -27 72 -29 9 -6 -48 -113 -120 -224 -59 -91 -241 -282 -281 -295 -15
-4 -26 -3 -31 5 -13 21 -42 3 -38 -22 8 -59 81 -23 199 96 103 105 156 177
237 324 47 86 60 102 77 98 11 -2 60 -16 108 -30 49 -14 127 -32 175 -41 153
-27 142 -23 143 -58 l1 -32 7 30 6 30 69 -4 c62 -3 68 -2 63 15 -3 11 -18 75
-32 144 l-26 125 65 185 c75 214 161 415 246 574 33 62 60 118 60 125 0 31
-29 -3 -73 -85 -27 -49 -74 -120 -106 -159 -31 -38 -81 -104 -111 -145 -30
-41 -76 -101 -102 -133 -47 -56 -48 -57 -57 -34 -27 71 -24 113 14 212 21 53
61 140 90 194 29 54 62 122 73 152 11 30 36 92 56 137 40 92 43 112 21 112
-18 0 -22 -7 -89 -171 -30 -74 -79 -183 -109 -244 -30 -60 -63 -134 -73 -162
-21 -60 -29 -65 -37 -25 -6 30 29 117 89 223 45 80 57 109 43 109 -5 0 -40
-61 -76 -135 -36 -75 -67 -134 -68 -133 -6 6 -139 527 -153 598 -14 71 -18 89
-21 100 -1 3 -10 34 -21 70 -11 36 -20 77 -20 92 0 15 -4 30 -10 33 -5 3 -10
14 -10 23 0 9 -21 67 -46 127 -105 252 -134 379 -101 441 l16 29 1 -53 c0 -64
45 -169 111 -258 68 -93 343 -350 444 -415 22 -14 51 -37 65 -52 20 -20 28
-23 39 -14 12 9 13 9 7 0 -5 -10 8 -13 53 -13 54 0 61 2 61 20 0 11 -7 20 -15
20 -8 0 -15 4 -15 9 0 14 41 41 62 41 10 0 18 3 18 8 0 4 11 19 25 34 13 15
20 28 15 30 -5 2 11 20 36 40 39 32 43 38 24 38 l-22 0 26 33 c14 17 32 39 41
47 118 115 166 168 199 215 21 31 44 54 50 52 8 -3 18 10 25 31 7 21 34 69 60
107 26 39 58 94 70 124 24 57 64 222 86 356 16 94 29 413 15 350 -5 -22 -9
-81 -9 -131 -1 -87 -14 -187 -31 -229 -4 -11 -13 -33 -19 -48 -6 -16 -9 -33
-6 -38 4 -5 1 -9 -4 -9 -6 0 -10 -3 -9 -7 1 -9 -13 -46 -21 -53 -3 -3 -15 -23
-26 -45 -11 -22 -26 -44 -33 -48 -7 -5 -17 -20 -22 -33 -5 -13 -21 -29 -36
-34 -17 -7 -24 -15 -20 -25 3 -8 2 -15 -3 -15 -5 0 -20 -17 -33 -37 -14 -21
-39 -46 -56 -55 -29 -17 -30 -17 -35 2 -3 11 -10 20 -15 20 -12 0 -22 -46 -11
-57 4 -4 1 -14 -7 -21 -8 -7 -14 -11 -14 -8 0 3 -11 -5 -25 -18 -22 -20 -24
-27 -15 -51 11 -30 6 -45 -15 -45 -8 0 -12 -6 -9 -14 13 -34 -89 -54 -214 -42
-13 1 -28 9 -33 17 -6 10 -9 10 -9 2 0 -16 -36 -17 -45 -3 -5 8 -11 7 -21 -1
-21 -17 -90 16 -71 35 7 7 24 15 37 18 14 3 61 14 105 23 44 9 98 25 120 35
38 17 93 76 81 87 -2 3 -25 -3 -50 -12 -59 -23 -220 -18 -259 7 -36 24 -100
105 -92 117 9 16 453 8 488 -9 41 -20 54 -2 34 47 -9 21 -16 33 -16 27 -1 -19
-65 -9 -99 16 -33 25 -42 23 -55 -15 -2 -6 -36 -9 -77 -9 -76 2 -90 9 -90 51
0 48 -76 56 -155 18 -27 -14 -54 -25 -58 -25 -18 0 24 31 65 49 51 22 102 61
106 79 1 7 -2 21 -7 31 -7 12 -6 18 2 19 11 1 33 7 123 33 42 13 99 5 89 -11
-3 -6 0 -10 9 -10 28 0 46 12 46 31 0 29 -36 42 -94 35 -77 -11 -88 -10 -126
8 -63 31 -80 41 -80 48 0 5 -7 8 -15 8 -8 0 -15 -4 -15 -9 0 -5 -14 -14 -31
-22 -28 -11 -33 -10 -45 6 -19 25 -18 29 10 62 21 24 28 26 44 16 30 -18 63
21 57 66 -4 33 -15 56 -15 33 0 -7 -4 -12 -10 -12 -12 0 -4 57 15 103 8 20 13
37 10 37 -7 0 7 18 56 71 37 39 64 49 72 27 3 -10 7 -10 17 -1 9 9 8 14 -9 22
-12 7 -21 9 -21 6 0 -3 -9 -1 -21 6 -14 7 -19 17 -16 30 6 21 -20 33 -47 23
-9 -4 -16 -1 -16 6 0 7 -14 25 -31 41 -22 21 -29 34 -24 49 5 15 3 18 -9 14
-11 -4 -16 0 -16 11 0 9 -4 14 -9 10 -5 -3 -12 -1 -16 4 -3 6 -12 8 -19 5 -8
-3 -17 -1 -20 4 -3 5 -44 8 -91 7 -47 -2 -87 1 -90 6 -4 5 -15 9 -25 9 -10 0
-22 5 -26 12 -4 7 -3 8 4 4 7 -4 12 -3 12 3 0 5 13 23 30 38 29 28 65 81 76
116 4 9 12 17 20 17 24 0 28 25 29 174 0 148 0 149 26 168 14 11 48 21 79 24
29 3 56 6 59 9 4 2 33 4 66 6 33 1 63 7 67 13 5 8 14 7 28 -2 11 -7 25 -10 30
-7 5 3 19 1 30 -5 14 -8 26 -8 41 0 16 9 26 8 46 -5 15 -10 38 -15 58 -13 19
2 32 1 29 -3 -6 -10 6 -17 37 -23 96 -18 214 -86 245 -142 6 -10 19 -47 29
-81 10 -35 22 -63 27 -63 4 0 8 -9 8 -20 0 -11 4 -20 8 -20 4 0 13 -13 19 -30
6 -16 18 -30 27 -30 11 0 15 -8 12 -27 -2 -16 -1 -20 1 -10 2 9 8 17 13 17 5
0 5 -14 0 -31 -5 -18 -6 -37 -3 -43 10 -16 13 -42 13 -121 0 -70 11 -112 23
-82 3 8 11 75 17 150 26 301 -32 498 -199 667 -79 80 -205 165 -275 185 -105
30 -339 40 -526 24z m90 -1026 c36 -21 66 -83 41 -83 -5 0 -11 12 -13 27 -2
18 -15 35 -37 50 -39 27 -33 31 9 6z m-154 -6 c13 -12 -6 -23 -36 -21 -35 2
-45 8 -36 22 6 9 62 9 72 -1z m-300 -120 c1 -126 -2 -124 151 -122 70 0 136 6
146 11 11 6 30 9 42 6 21 -4 23 -8 18 -35 -4 -21 -3 -28 5 -23 7 4 12 2 12 -5
0 -9 3 -9 14 0 27 22 28 -8 2 -34 -15 -14 -26 -32 -26 -39 0 -7 -18 -18 -41
-25 -43 -13 -45 -23 -6 -26 24 -2 33 -26 21 -53 -4 -9 -8 -19 -9 -22 -1 -3 -4
-12 -7 -20 -14 -35 -15 -60 -4 -74 13 -18 104 -43 166 -45 20 -1 22 -3 10 -11
-8 -5 -22 -7 -31 -5 -9 3 -28 -6 -43 -20 -15 -14 -31 -25 -36 -25 -5 0 -16 -7
-24 -16 -9 -8 -24 -17 -33 -19 -10 -2 -33 -7 -50 -11 -22 -4 -33 -3 -33 5 0 6
-8 11 -18 11 -24 0 -42 21 -86 98 -28 49 -34 70 -29 95 8 45 30 77 53 77 11 0
20 5 20 10 0 6 12 10 27 10 47 0 16 12 -38 15 -40 2 -57 8 -70 24 -10 12 -24
19 -33 15 -11 -4 -14 0 -11 16 2 13 2 20 -2 16 -9 -8 -34 14 -27 25 3 5 1 9
-4 9 -5 0 -9 6 -10 13 0 6 -8 39 -16 72 -16 63 -20 124 -10 163 4 12 7 22 8
22 1 0 2 -37 2 -83z m292 76 c-10 -2 -26 -2 -35 0 -10 3 -2 5 17 5 19 0 27 -2
18 -5z m56 -62 c16 -18 16 -19 -15 -30 -18 -6 -39 -11 -47 -11 -13 0 -13 3 1
18 10 10 17 24 17 30 0 18 25 14 44 -7z m3 -55 c0 -11 -5 -13 -19 -5 -10 5
-18 12 -18 14 0 3 8 5 18 5 10 0 19 -7 19 -14z m-42 -6 c3 -5 1 -10 -4 -10 -6
0 -11 5 -11 10 0 6 2 10 4 10 3 0 8 -4 11 -10z m219 -2326 c-39 -88 -99 -248
-141 -376 l-37 -113 -22 95 c-13 52 -23 104 -24 115 0 11 24 50 53 86 28 37
83 110 121 163 38 52 71 94 73 92 2 -1 -8 -29 -23 -62z"/>
<path d="M2268 3633 c7 -3 16 -2 19 1 4 3 -2 6 -13 5 -11 0 -14 -3 -6 -6z"/>
<path d="M2740 4130 c-17 -10 -21 -59 -8 -77 6 -8 -6 -20 -40 -39 -46 -25 -48
-29 -33 -45 15 -18 16 -18 41 4 14 12 19 15 13 7 -19 -21 -16 -60 5 -61 9 -1
20 -1 25 0 4 1 5 -12 2 -29 -3 -17 -1 -30 5 -30 6 0 29 -12 51 -27 22 -15 48
-27 57 -28 10 -1 28 -5 42 -9 20 -6 22 -5 10 4 -11 8 -6 9 25 5 27 -4 34 -3
20 3 -37 17 -77 23 -70 12 9 -15 -1 -12 -37 10 -32 19 -32 20 -8 21 14 0 19 3
13 6 -7 2 -13 14 -12 26 0 18 3 17 16 -10 21 -41 58 -44 102 -7 32 27 51 25
51 -5 0 -10 11 -23 25 -29 15 -7 25 -8 25 -2 0 6 10 10 23 10 30 1 52 20 61
53 5 20 3 27 -9 27 -8 0 -15 4 -15 9 0 6 -9 8 -20 6 -11 -2 -20 -1 -20 4 0 4
-10 8 -22 8 -13 1 -43 7 -68 13 -25 6 -64 16 -87 22 -39 10 -40 11 -25 29 9
10 22 19 29 19 7 0 13 5 13 11 0 15 188 3 206 -12 7 -6 19 -7 25 -3 7 4 9 3 6
-3 -4 -6 -1 -16 7 -22 10 -9 13 -7 12 11 -1 15 -10 24 -26 29 -19 5 -21 7 -5
8 16 1 13 7 -20 41 -31 32 -45 40 -63 35 -13 -3 -22 -2 -19 2 7 11 -285 14
-303 3z m288 -67 c-15 -2 -42 -2 -60 0 -18 2 -6 4 27 4 33 0 48 -2 33 -4z m85
-10 c-7 -2 -19 -2 -25 0 -7 3 -2 5 12 5 14 0 19 -2 13 -5z m-128 -107 c38 -16
49 -31 13 -17 -13 5 -39 14 -58 19 -26 7 -29 10 -12 11 12 1 38 -6 57 -13z"/>
<path d="M3291 3934 c0 -11 3 -14 6 -6 3 7 2 16 -1 19 -3 4 -6 -2 -5 -13z"/>
<path d="M3198 3901 c4 -44 -22 -154 -48 -198 -11 -18 -16 -33 -12 -33 34 0
94 245 64 264 -4 2 -6 -12 -4 -33z"/>
<path d="M3376 3911 c-13 -14 -15 -28 -10 -61 l7 -43 18 44 c29 72 22 101 -15
60z"/>
<path d="M2630 3340 c0 -5 5 -10 11 -10 5 0 7 5 4 10 -3 6 -8 10 -11 10 -2 0
-4 -4 -4 -10z"/>
<path d="M2587 3318 c-4 -12 -4 -24 -2 -26 7 -8 35 20 35 34 0 23 -27 16 -33
-8z"/>
<path d="M2667 3323 c-6 -6 45 -43 59 -43 8 0 -39 50 -47 50 -3 0 -9 -3 -12
-7z"/>
<path d="M2750 3274 c0 -8 5 -12 10 -9 6 4 8 11 5 16 -9 14 -15 11 -15 -7z"/>
<path d="M2785 3260 c3 -5 8 -10 11 -10 2 0 4 5 4 10 0 6 -5 10 -11 10 -5 0
-7 -4 -4 -10z"/>
<path d="M3097 2796 c2 -17 7 -133 12 -259 10 -224 9 -228 -14 -305 -13 -42
-24 -67 -24 -55 -1 12 -5 25 -11 28 -6 4 -11 -33 -11 -102 -2 -140 1 -176 15
-185 7 -5 12 -51 15 -126 l3 -119 -31 -34 c-34 -36 -40 -55 -16 -45 11 4 15
-2 15 -23 0 -23 -14 -42 -64 -88 -146 -134 -292 -179 -229 -71 11 19 27 33 39
33 13 0 20 8 22 28 2 15 -1 27 -7 27 -6 0 -51 -41 -99 -90 -81 -82 -112 -105
-112 -82 0 5 7 17 15 28 17 22 19 44 5 44 -14 0 -40 -55 -40 -85 0 -14 6 -25
13 -25 15 0 91 52 102 69 9 16 25 13 25 -4 0 -9 11 -21 26 -27 21 -10 33 -8
78 15 30 14 90 55 134 91 59 48 81 61 81 48 2 -111 -1 -193 -9 -272 -6 -52
-12 -113 -14 -135 -4 -36 -15 -88 -56 -273 -7 -29 -9 -56 -6 -60 10 -10 121
17 251 59 130 43 327 134 419 193 32 20 61 36 65 34 4 -2 -19 -75 -51 -163
-140 -384 -236 -704 -223 -746 10 -30 25 -22 25 14 0 47 74 306 135 472 20 55
56 156 80 225 72 205 87 237 131 270 21 16 47 30 56 30 9 0 64 23 122 52 59
28 108 49 111 47 2 -3 -24 -80 -59 -172 -60 -160 -65 -171 -121 -227 -75 -76
-100 -78 -40 -4 46 56 52 87 12 59 -31 -22 -78 -96 -75 -119 5 -35 27 -29 83
25 30 28 55 48 55 43 0 -5 -18 -62 -40 -127 -55 -163 -91 -304 -84 -333 10
-40 19 -27 20 29 1 60 48 207 166 527 112 304 122 321 182 343 46 17 48 17 43
0 -3 -10 -44 -124 -92 -253 -134 -363 -190 -553 -178 -600 9 -35 18 -22 18 28
0 26 16 97 34 157 32 103 179 506 234 640 l25 60 129 43 c70 24 146 45 167 47
27 2 45 10 56 25 13 18 29 23 70 25 53 3 81 17 61 29 -6 4 -111 -26 -234 -67
-122 -41 -224 -73 -226 -71 -2 2 9 34 25 71 16 37 31 71 32 75 2 4 0 8 -6 8
-5 0 -28 -40 -51 -89 -40 -83 -45 -90 -87 -106 -25 -9 -48 -14 -51 -11 -3 3 7
36 23 73 16 37 31 71 33 76 2 6 -2 6 -8 2 -7 -4 -31 -45 -54 -92 l-42 -85 -94
-39 c-51 -22 -95 -39 -97 -39 -2 0 54 57 124 127 127 127 277 315 340 425 18
32 37 60 42 63 22 14 21 66 -3 112 -14 27 -28 69 -31 95 -7 60 -74 215 -116
267 -35 46 -76 71 -113 71 -63 0 -926 393 -1022 465 l-31 23 3 -32z"/>
<path d="M3001 2709 c-17 -33 -37 -67 -44 -75 -7 -8 -17 -20 -22 -27 -6 -7
-25 -32 -42 -57 -17 -25 -45 -58 -62 -74 -17 -17 -31 -39 -31 -51 0 -12 -9
-30 -20 -40 -11 -10 -20 -26 -20 -36 0 -11 -13 -31 -29 -47 -24 -22 -32 -42
-41 -97 -7 -39 -15 -81 -18 -95 -3 -14 -7 -29 -8 -35 -5 -30 -27 -74 -35 -69
-5 3 -9 2 -8 -3 4 -22 -2 -43 -11 -38 -12 7 -13 -5 -2 -22 10 -16 72 64 145
187 31 52 73 120 94 150 78 112 117 186 150 283 30 91 53 207 41 207 -3 0 -19
-27 -37 -61z"/>
<path d="M3019 2400 c-1 -5 -2 -14 -3 -19 0 -5 -4 -13 -8 -17 -14 -13 -8 -22
23 -38 l32 -16 -7 38 c-3 20 -6 43 -6 50 0 14 -29 17 -31 2z"/>
<path d="M4750 1909 c-150 -39 -312 -90 -306 -96 3 -3 40 6 83 21 130 42 324
88 354 84 20 -3 29 0 29 9 0 19 -32 16 -160 -18z"/>
<path d="M2642 1468 c6 -18 28 -21 28 -4 0 9 -7 16 -16 16 -9 0 -14 -5 -12
-12z"/>
<path d="M4422 1030 c-41 -49 -56 -51 -47 -7 7 31 6 31 -58 -30 -36 -35 -70
-63 -76 -63 -6 0 7 23 29 51 43 55 49 72 23 67 -27 -5 -83 -86 -83 -119 0 -41
19 -37 78 16 54 49 62 53 62 30 0 -18 21 -20 38 -3 29 29 19 -9 -32 -128 -53
-122 -60 -133 -134 -204 -144 -139 -250 -292 -338 -488 -76 -169 -54 -176 77
-25 117 135 185 239 280 428 66 130 83 155 125 188 70 54 186 117 205 112 22
-7 49 4 49 21 0 8 -8 14 -17 14 -27 0 -119 -46 -185 -90 -32 -22 -62 -40 -68
-40 -5 0 0 21 12 48 11 26 38 90 60 142 22 52 42 101 45 108 11 25 -13 10 -45
-28z m-210 -507 c-83 -164 -241 -387 -332 -468 l-23 -20 7 28 c21 87 145 309
235 422 78 97 155 171 159 152 2 -8 -19 -59 -46 -114z"/>
</g>
</svg>
